HIERARCHY
ROOT Hips
{
 OFFSET 0.000000 0.000000 0.000000
 CHANNELS 6 Xposition Yposition Zposition Yrotation Xrotation Zrotation
 JOINT Chest
 {
  OFFSET 0.000000 9.588913 -0.003946
  CHANNELS 3 Yrotation Xrotation Zrotation
  JOINT Chest2
  {
   OFFSET 0.000000 9.541882 0.008053
   CHANNELS 3 Yrotation Xrotation Zrotation
   JOINT Chest3
   {
    OFFSET 0.000000 9.501360 0.000000
    CHANNELS 3 Yrotation Xrotation Zrotation
    JOINT Chest4
    {
     OFFSET 0.000000 9.491660 0.000000
     CHANNELS 3 Yrotation Xrotation Zrotation
     JOINT Neck
     {
      OFFSET 0.000000 14.331917 0.000000
      CHANNELS 3 Yrotation Xrotation Zrotation
      JOINT Head
      {
       OFFSET 0.000000 8.884799 0.017034
       CHANNELS 3 Yrotation Xrotation Zrotation
       End Site
       {
        OFFSET 0.000000 16.896195 0.008993
       }
      }
     }
     JOINT RightCollar
     {
      OFFSET -2.923010 9.499495 0.000000
      CHANNELS 3 Yrotation Xrotation Zrotation
      JOINT RightShoulder
      {
       OFFSET -13.795216 0.000000 0.000000
       CHANNELS 3 Yrotation Xrotation Zrotation
       JOINT RightElbow
       {
        OFFSET -30.272209 0.000000 0.000000
        CHANNELS 3 Yrotation Xrotation Zrotation
        JOINT RightWrist
        {
         OFFSET -24.478199 0.000000 0.000000
         CHANNELS 3 Yrotation Xrotation Zrotation
         End Site
         {
          OFFSET -18.090752 0.000000 0.000000
         }
        }
       }
      }
     }
     JOINT LeftCollar
     {
      OFFSET 2.923010 9.499495 0.000000
      CHANNELS 3 Yrotation Xrotation Zrotation
      JOINT LeftShoulder
      {
       OFFSET 13.795216 0.000000 0.000000
       CHANNELS 3 Yrotation Xrotation Zrotation
       JOINT LeftElbow
       {
        OFFSET 30.272209 0.000000 0.000000
        CHANNELS 3 Yrotation Xrotation Zrotation
        JOINT LeftWrist
        {
         OFFSET 24.478199 0.000000 0.000000
         CHANNELS 3 Yrotation Xrotation Zrotation
         End Site
         {
          OFFSET 18.090752 0.000000 0.000000
         }
        }
       }
      }
     }
    }
   }
  }
 }
 JOINT RightHip
 {
  OFFSET -7.826875 0.019532 0.001973
  CHANNELS 3 Yrotation Xrotation Zrotation
  JOINT RightKnee
  {
   OFFSET 0.000000 -40.546152 -0.001885
   CHANNELS 3 Yrotation Xrotation Zrotation
   JOINT RightAnkle
   {
    OFFSET 0.000000 -39.417092 -0.003189
    CHANNELS 3 Yrotation Xrotation Zrotation
    JOINT RightToe
    {
     OFFSET 0.000000 -7.579396 17.243563
     CHANNELS 3 Yrotation Xrotation Zrotation
     End Site
     {
      OFFSET 0.000000 -1.500329 6.694466
     }
    }
   }
  }
 }
 JOINT LeftHip
 {
  OFFSET 7.826875 0.019532 0.001973
  CHANNELS 3 Yrotation Xrotation Zrotation
  JOINT LeftKnee
  {
   OFFSET 0.000000 -40.546152 -0.001885
   CHANNELS 3 Yrotation Xrotation Zrotation
   JOINT LeftAnkle
   {
    OFFSET 0.000000 -39.417092 -0.003189
    CHANNELS 3 Yrotation Xrotation Zrotation
    JOINT LeftToe
    {
     OFFSET 0.000000 -7.579396 17.243563
     CHANNELS 3 Yrotation Xrotation Zrotation
     End Site
     {
      OFFSET 0.000000 -1.500329 6.694466
     }
    }
   }
  }
 }
}
MOTION
Frames: 16
Frame Time: 0.008333
0.000000 87.345680 0.000000 0.000000 -5.767889 0.000000 0.000000 11.653876 0.000000 0.000000 -5.885988 0.000000 0.000000 -0.000000 0.000000 0.000000 -0.000000 0.000000 0.000000 12.528808 0.000000 0.000000 0.711711 0.000000 0.000000 -0.000000 0.000000 0.000000 -0.000000 0.000000 2.309063 -0.000000 0.000000 -2.309063 -0.000000 -0.000000 0.000000 -0.000000 0.000000 0.000000 0.000000 0.000000 -2.309063 0.000000 0.000000 2.309063 -0.000000 0.000000 0.000000 8.520374 0.000000 0.000000 1.905768 0.000000 -0.000000 -4.658254 0.000000 0.000000 -0.000000 0.000000 0.000000 8.520374 0.000000 0.000000 1.905768 0.000000 -0.000000 -4.658254 0.000000 0.000000 -0.000000 0.000000
22.452513 88.072424 -24.296842 96.849719 -10.770961 1.334700 5.334741 3.727734 -3.149184 3.052645 2.053541 -1.642303 3.807125 2.580306 -2.035921 3.052645 2.053541 -1.642303 -3.238005 15.243622 -1.996635 -2.954136 -9.686439 -1.364971 -8.991305 -10.387008 -7.760012 -37.857906 -29.192812 69.223447 95.909397 -70.025209 37.106706 20.971027 -26.795242 10.701009 -18.812388 -9.503602 8.784898 -8.596873 -39.761376 -95.964770 -23.884132 -18.542063 -95.704851 -11.698379 -25.458639 4.187333 -6.603572 13.563045 -14.670232 0.193446 18.321401 -0.290542 -3.485058 -9.526594 12.989420 -0.048458 -10.093528 0.715159 4.793565 14.044585 3.790491 12.644238 3.234006 -1.241773 4.833384 -6.753007 -1.941462 0.131961 0.615812 0.117325
22.451533 88.074987 -24.381423 96.874465 -10.822642 1.291802 5.318774 3.766648 -3.151495 3.045195 2.069473 -1.637540 3.797777 2.600148 -2.029882 3.045195 2.069473 -1.637540 -3.257836 15.237561 -1.997239 -2.975181 -9.692292 -1.361242 -8.991234 -10.360854 -7.763675 -37.903850 -29.228902 69.247587 95.727176 -70.035295 37.314413 20.987821 -26.817639 10.665669 -18.801184 -9.499662 8.764662 -8.597044 -39.769408 -95.951840 -23.885803 -18.536363 -95.687969 -11.670744 -25.454941 4.148617 -6.518481 13.067746 -14.781374 0.357136 19.331772 -0.181679 -3.408475 -9.467092 13.348173 -0.044471 -10.684065 0.482621 4.728189 14.111438 3.786131 12.693986 3.229392 -1.282924 4.826104 -6.795465 -1.888399 0.122576 0.632444 0.119228
22.447128 88.076548 -24.480130 96.888100 -10.869979 1.256253 5.306951 3.803261 -3.157232 3.039225 2.085076 -1.634329 3.790272 2.619597 -2.025778 3.039225 2.085076 -1.634329 -3.277150 15.230960 -1.999454 -2.995323 -9.698708 -1.359326 -8.988842 -10.334621 -7.772736 -37.929288 -29.262635 69.267705 95.586787 -70.039458 37.473836 21.003297 -26.844559 10.622653 -18.786998 -9.492039 8.753825 -8.590551 -39.774863 -95.953470 -23.879134 -18.535654 -95.670017 -11.613642 -25.444244 4.088550 -6.401429 12.549921 -14.916031 0.517399 20.366508 -0.053529 -3.329891 -9.374273 13.738277 -0.030774 -11.303177 0.220804 4.669489 14.182777 3.766448 12.728728 3.210072 -1.331552 4.839460 -6.836782 -1.824976 0.117397 0.652207 0.122704
22.439879 88.076998 -24.588470 96.888694 -10.917827 1.230087 5.300851 3.838220 -3.167220 3.035524 2.101184 -1.633189 3.785590 2.639705 -2.024245 3.035525 2.101184 -1.633189 -3.296972 15.225414 -2.000753 -3.016221 -9.704006 -1.356334 -8.984811 -10.305424 -7.785095 -37.920302 -29.280181 69.271498 95.538574 -70.051395 37.546178 21.025704 -26.864343 10.577761 -18.771288 -9.478518 8.749556 -8.582928 -39.779727 -95.961249 -23.861186 -18.537850 -95.657595 -11.530836 -25.429674 4.012916 -6.236883 12.018850 -15.066809 0.668799 21.424799 0.082727 -3.249774 -9.251590 14.169600 -0.007849 -11.951191 -0.074245 4.613508 14.261974 3.733977 12.741343 3.180484 -1.389362 4.880413 -6.876911 -1.753385 0.114667 0.673291 0.126830
22.429783 88.076398 -24.701221 96.878023 -10.966975 1.212880 5.299710 3.872065 -3.179919 3.033847 2.118112 -1.634351 3.783421 2.660864 -2.025573 3.033848 2.118112 -1.634351 -3.317766 15.221005 -2.000358 -3.038544 -9.708095 -1.351344 -8.981056 -10.273536 -7.798150 -37.887752 -29.286839 69.261205 95.563859 -70.071777 37.550683 21.055867 -26.874363 10.532837 -18.755153 -9.462350 8.745889 -8.568909 -39.787120 -95.970175 -23.830035 -18.535212 -95.656473 -11.441098 -25.407544 3.935351 -6.023489 11.474572 -15.228042 0.823250 22.510029 0.223594 -3.175560 -9.103497 14.641430 0.024143 -12.627902 -0.399191 4.561416 14.346706 3.695315 12.748524 3.146261 -1.456259 4.924583 -6.916279 -1.679306 0.113185 0.694844 0.133263
22.417536 88.075278 -24.813176 96.858104 -11.021403 1.202266 5.301981 3.907159 -3.192016 3.033822 2.136425 -1.638026 3.783297 2.683783 -2.030021 3.033822 2.136425 -1.638025 -3.339215 15.217414 -1.998357 -3.061933 -9.711319 -1.344514 -8.975025 -10.239588 -7.810316 -37.853005 -29.293723 69.243695 95.586083 -70.105684 37.557633 21.082940 -26.881841 10.505697 -18.736972 -9.447811 8.739812 -8.546991 -39.796957 -95.975696 -23.787542 -18.524472 -95.668398 -11.361106 -25.377162 3.864761 -5.773098 10.920596 -15.396842 0.999439 23.619296 0.370602 -3.114726 -8.933031 15.144722 0.064415 -13.330814 -0.745097 4.520802 14.440190 3.658316 12.768719 3.107138 -1.531352 4.948382 -6.952536 -1.607981 0.112805 0.716108 0.143626
22.404367 88.074568 -24.919529 96.830408 -11.086685 1.195023 5.306334 3.946839 -3.200957 3.035405 2.157103 -1.644409 3.785158 2.709687 -2.037826 3.035405 2.157103 -1.644408 -3.360742 15.214304 -1.993294 -3.086091 -9.714063 -1.334432 -8.963516 -10.205531 -7.820266 -37.826545 -29.302375 69.226852 95.558377 -70.154296 37.608843 21.095192 -26.896010 10.505940 -18.717252 -9.438436 8.733330 -8.527867 -39.807531 -95.968717 -23.743819 -18.513549 -95.687949 -11.295801 -25.351030 3.804564 -5.499555 10.364911 -15.573197 1.212441 24.743293 0.530887 -3.067951 -8.742563 15.663869 0.111152 -14.048731 -1.100650 4.492632 14.549027 3.627399 12.801929 3.059179 -1.611344 4.954290 -6.981614 -1.542280 0.112684 0.735780 0.156112
22.390798 88.075247 -25.016136 96.799691 -11.162223 1.188380 5.311163 3.990929 -3.205346 3.038183 2.179669 -1.653013 3.788493 2.737974 -2.048386 3.038184 2.179669 -1.653012 -3.382008 15.212501 -1.984473 -3.110810 -9.715471 -1.320440 -8.950096 -10.170103 -7.830398 -37.804954 -29.311154 69.218243 95.435295 -70.224083 37.746866 21.080097 -26.929072 10.530292 -18.700411 -9.434847 8.727628 -8.520366 -39.816378 -95.945603 -23.706440 -18.512509 -95.712327 -11.241267 -25.338260 3.758193 -5.209979 9.812053 -15.756821 1.469555 25.872068 0.716902 -3.034952 -8.536029 16.173736 0.161443 -14.757424 -1.448879 4.464896 14.671860 3.600364 12.840044 3.000294 -1.689353 4.961558 -6.999999 -1.483691 0.111558 0.752718 0.166906
22.377642 88.078379 -25.099799 96.771352 -11.247193 1.180779 5.315532 4.037361 -3.204387 3.041778 2.203295 -1.662792 3.792835 2.767599 -2.060401 3.041779 2.203295 -1.662792 -3.403488 15.213738 -1.972556 -3.136463 -9.713697 -1.303136 -8.940867 -10.133171 -7.842899 -37.785816 -29.324866 69.217641 95.133793 -70.329165 38.060438 21.048701 -26.980483 10.568113 -18.687629 -9.434986 8.720595 -8.524684 -39.822633 -95.912492 -23.675306 -18.520982 -95.739770 -11.192172 -25.334467 3.720645 -4.899893 9.267681 -15.946028 1.770996 26.999726 0.944900 -3.016261 -8.318128 16.639609 0.212325 -15.429343 -1.766808 4.426383 14.805866 3.575363 12.877219 2.932082 -1.760216 4.982576 -7.005429 -1.433519 0.108620 0.764894 0.173540
22.365924 88.084937 -25.168549 96.752730 -11.340455 1.172108 5.317414 4.084387 -3.198651 3.044944 2.227591 -1.673487 3.796631 2.798068 -2.073558 3.044944 2.227591 -1.673486 -3.426088 15.219175 -1.958073 -3.163909 -9.707483 -1.282883 -8.936135 -10.097159 -7.856715 -37.773545 -29.351401 69.219254 94.678786 -70.446472 38.528694 21.031732 -27.033112 10.590326 -18.674375 -9.434869 8.711202 -8.540747 -39.830155 -95.873345 -23.653070 -18.536276 -95.762984 -11.146877 -25.331236 3.682764 -4.568724 8.738399 -16.139484 2.114174 28.117685 1.227626 -3.005956 -8.093276 17.023579 0.259958 -16.033667 -2.029980 4.370284 14.946106 3.552984 12.912002 2.861134 -1.823384 5.016821 -6.997944 -1.392218 0.103449 0.769561 0.175609
22.356037 88.095494 -25.221494 96.750469 -11.435707 1.162594 5.314028 4.128731 -3.189129 3.045765 2.250728 -1.685388 3.797492 2.827087 -2.088246 3.045765 2.250728 -1.685387 -3.449385 15.230687 -1.942219 -3.192441 -9.694847 -1.261041 -8.932193 -10.058427 -7.873345 -37.756216 -29.386989 69.212956 94.227819 -70.538833 38.992263 21.035003 -27.067536 10.586293 -18.655597 -9.426533 8.698772 -8.563884 -39.841932 -95.829174 -23.646794 -18.556610 -95.776921 -11.106189 -25.323985 3.642615 -4.224926 8.227218 -16.332042 2.494889 29.208958 1.562711 -2.989148 -7.865472 17.295562 0.297378 -16.540299 -2.217876 4.294759 15.081719 3.534829 12.948992 2.795776 -1.879993 5.052645 -6.979190 -1.358237 0.096130 0.764708 0.172645
22.349008 88.110382 -25.258506 96.769017 -11.529603 1.149867 5.303787 4.169042 -3.176473 3.043320 2.271570 -1.698476 3.794271 2.853232 -2.104457 3.043320 2.271570 -1.698476 -3.473011 15.249365 -1.925217 -3.221625 -9.674642 -1.237928 -8.927728 -10.016207 -7.891238 -37.712274 -29.416518 69.183496 93.875292 -70.606025 39.356289 21.042375 -27.085288 10.583549 -18.633791 -9.407263 8.684803 -8.584340 -39.854161 -95.783723 -23.659304 -18.577975 -95.781365 -11.066045 -25.312141 3.597539 -3.876779 7.736947 -16.511521 2.910917 30.260670 1.940307 -2.960379 -7.635403 17.437285 0.317606 -16.940429 -2.315841 4.202473 15.205963 3.524625 12.990883 2.742680 -1.929601 5.080152 -6.952012 -1.329485 0.087353 0.749568 0.163544
22.354091 88.131377 -25.283102 96.853376 -11.671609 1.132784 5.245412 4.254375 -3.165666 3.037396 2.290953 -1.712562 3.786698 2.877548 -2.121950 3.037396 2.290954 -1.712561 -3.498677 15.275062 -1.907287 -3.253246 -9.646963 -1.213402 -8.924255 -9.975454 -7.907666 -37.640371 -29.431284 69.123964 93.590831 -70.667300 39.647097 21.041330 -27.105709 10.602998 -18.614821 -9.382421 8.670573 -8.592588 -39.861586 -95.742019 -23.683979 -18.597530 -95.782406 -11.017320 -25.294379 3.544427 -3.579111 7.348713 -16.671231 3.349082 31.238201 2.349902 -2.953818 -7.427795 17.415572 0.342906 -17.219314 -2.299085 4.051080 15.368598 3.516564 13.033170 2.703549 -1.970477 5.099867 -6.913835 -1.304497 0.077519 0.718262 0.148147
22.361274 88.155733 -25.291354 96.941389 -11.787240 1.096430 5.205143 4.309409 -3.134640 3.028503 2.310096 -1.727475 3.775406 2.901555 -2.140499 3.028502 2.310096 -1.727475 -3.529162 15.306409 -1.890033 -3.289935 -9.613148 -1.188539 -8.925821 -9.938496 -7.922203 -37.550098 -29.435832 69.040597 93.335955 -70.733896 39.898904 21.030552 -27.127543 10.635327 -18.601328 -9.357757 8.654237 -8.585703 -39.863638 -95.707764 -23.711968 -18.614517 -95.782560 -10.957720 -25.268725 3.484536 -3.256477 6.975088 -16.784908 3.803487 32.126935 2.785536 -2.919799 -7.209852 17.233058 0.345261 -17.427873 -2.172039 3.905273 15.494290 3.534510 13.067011 2.677730 -2.005738 5.129784 -6.874432 -1.283294 0.066424 0.682320 0.127705
22.373416 88.183523 -25.288930 97.074883 -11.890318 1.050097 5.137951 4.349746 -3.099795 3.017825 2.329467 -1.742825 3.761878 2.925842 -2.159605 3.017824 2.329467 -1.742825 -3.564672 15.341015 -1.873896 -3.331810 -9.575696 -1.163754 -8.934038 -9.905513 -7.935456 -37.447495 -29.434209 68.944098 93.150845 -70.793808 40.066492 21.014476 -27.136964 10.668792 -18.591906 -9.337111 8.635240 -8.574263 -39.861527 -95.679582 -23.742012 -18.634592 -95.774564 -10.890371 -25.235164 3.421295 -2.960014 6.638854 -16.868672 4.270230 32.918259 3.231995 -2.854663 -7.013425 16.885375 0.332829 -17.580725 -1.930604 3.708847 15.600727 3.553603 13.084771 2.642465 -2.027565 5.178415 -6.802956 -1.273665 0.066858 0.630600 0.109060
